{"asset":{"version":"2.0","generator":"THREE.GLTFExporter"},"scenes":[{"name":"合并","nodes":[0,1,3,5,6,7,8]}],"scene":0,"nodes":[{"name":"环境光"},{"matrix":[1,0,0,0,0,1,0,0,0,0,1,0,1,1,5,1],"name":"平行光","extensions":{"KHR_lights_punctual":{"light":0}}},{"name":"合并网格对象","mesh":0},{"name":"雪人身体","children":[2]},{"mesh":1},{"matrix":[0.14567354385100045,0,0,0,0,0.14567354385100045,0,0,0,0,0.14567354385100045,0,-0.04596720265146137,1.5412404796082606,0.5107325126111637,1],"name":"雪人眼睛","children":[4]},{"matrix":[0.4630564059499236,0,0,0,0,-0.009683233777685192,0.46295514909639707,0,0,-0.46295514909639707,-0.009683233777685192,0,0.02006304590984198,1.4076224213299577,0.7415959150213522,1],"name":"雪人鼻子","mesh":2},{"matrix":[1,0,0,0,0,-0.10893734843277803,0.9940486175818746,0,0,-0.9940486175818746,-0.10893734843277803,0,0,1.0227653276148443,0,1],"name":"雪人围脖","mesh":3},{"matrix":[0.6268014948061731,-0.6032547803700672,-0.4931567256657958,0,0.779178982075843,0.4852813112047246,0.3967142080726077,0,0,-0.6329184141388883,0.7742184969657563,0,1.1340622341354738,0.8447528894028912,0.22834161528630437,1],"name":"圆柱几何体","mesh":4}],"extensions":{"KHR_lights_punctual":{"lights":[{"name":"平行光","color":[1,1,1],"intensity":0.2,"type":"directional"}]}},"bufferViews":[{"buffer":0,"byteOffset":0,"byteLength":101400,"target":34962,"byteStride":12},{"buffer":0,"byteOffset":101400,"byteLength":101400,"target":34962,"byteStride":12},{"buffer":0,"byteOffset":202800,"byteLength":67600,"target":34962,"byteStride":8},{"buffer":0,"byteOffset":270400,"byteLength":96768,"target":34963},{"buffer":0,"byteOffset":367168,"byteLength":101400,"target":34962,"byteStride":12},{"buffer":0,"byteOffset":468568,"byteLength":101400,"target":34962,"byteStride":12},{"buffer":0,"byteOffset":569968,"byteLength":67600,"target":34962,"byteStride":8},{"buffer":0,"byteOffset":637568,"byteLength":96768,"target":34963},{"buffer":0,"byteOffset":734336,"byteLength":3108,"target":34962,"byteStride":12},{"buffer":0,"byteOffset":737444,"byteLength":3108,"target":34962,"byteStride":12},{"buffer":0,"byteOffset":740552,"byteLength":2072,"target":34962,"byteStride":8},{"buffer":0,"byteOffset":742624,"byteLength":1152,"target":34963},{"buffer":0,"byteOffset":743776,"byteLength":50700,"target":34962,"byteStride":12},{"buffer":0,"byteOffset":794476,"byteLength":50700,"target":34962,"byteStride":12},{"buffer":0,"byteOffset":845176,"byteLength":33800,"target":34962,"byteStride":8},{"buffer":0,"byteOffset":878976,"byteLength":49152,"target":34963},{"buffer":0,"byteOffset":928128,"byteLength":4656,"target":34962,"byteStride":12},{"buffer":0,"byteOffset":932784,"byteLength":4656,"target":34962,"byteStride":12},{"buffer":0,"byteOffset":937440,"byteLength":3104,"target":34962,"byteStride":8},{"buffer":0,"byteOffset":940544,"byteLength":1536,"target":34963}],"buffers":[{"byteLength":942080,"uri":"data:application/octet-stream;base64,"}],"accessors":[{"bufferView":0,"componentType":5126,"count":8450,"max":[1.1166585683822632,2.1127960681915283,1.1166585683822632],"min":[-1.1166585683822632,-1.1166585683822632,-1.1166585683822632],"type":"VEC3"},{"bufferView":1,"componentType":5126,"count":8450,"max":[1,1,1],"min":[-1,-1,-1],"type":"VEC3"},{"bufferView":2,"componentType":5126,"count":8450,"max":[1.0078125,1],"min":[-0.0078125,0],"type":"VEC2"},{"bufferView":3,"componentType":5123,"count":48384,"max":[8449],"min":[0],"type":"SCALAR"},{"bufferView":4,"componentType":5126,"count":8450,"max":[3.00935959815979,0.6000000238418579,0.6000000238418579],"min":[-2.496690034866333,-0.6000000238418579,-0.6000000238418579],"type":"VEC3"},{"bufferView":5,"componentType":5126,"count":8450,"max":[1,1,1],"min":[-1,-1,-1],"type":"VEC3"},{"bufferView":6,"componentType":5126,"count":8450,"max":[1.0078125,1],"min":[-0.0078125,0],"type":"VEC2"},{"bufferView":7,"componentType":5123,"count":48384,"max":[8449],"min":[0],"type":"SCALAR"},{"bufferView":8,"componentType":5126,"count":259,"max":[0.20000000298023224,0.5,0.20000000298023224],"min":[-0.20000000298023224,-0.5,-0.20000000298023224],"type":"VEC3"},{"bufferView":9,"componentType":5126,"count":259,"max":[0.9805806875228882,0.1961161345243454,0.9805806875228882],"min":[-0.9805806875228882,-1,-0.9805806875228882],"type":"VEC3"},{"bufferView":10,"componentType":5126,"count":259,"max":[1,1],"min":[0,0],"type":"VEC2"},{"bufferView":11,"componentType":5123,"count":576,"max":[258],"min":[0],"type":"SCALAR"},{"bufferView":12,"componentType":5126,"count":4225,"max":[0.699999988079071,0.699999988079071,0.20000000298023224],"min":[-0.699999988079071,-0.699999988079071,-0.20000000298023224],"type":"VEC3"},{"bufferView":13,"componentType":5126,"count":4225,"max":[1,1,1],"min":[-1,-1,-1],"type":"VEC3"},{"bufferView":14,"componentType":5126,"count":4225,"max":[1,1],"min":[0,0],"type":"VEC2"},{"bufferView":15,"componentType":5123,"count":24576,"max":[4224],"min":[0],"type":"SCALAR"},{"bufferView":16,"componentType":5126,"count":388,"max":[0.05000000074505806,0.5,0.05000000074505806],"min":[-0.05000000074505806,-0.5,-0.05000000074505806],"type":"VEC3"},{"bufferView":17,"componentType":5126,"count":388,"max":[1,1,1],"min":[-1,-1,-1],"type":"VEC3"},{"bufferView":18,"componentType":5126,"count":388,"max":[1,1],"min":[0,0],"type":"VEC2"},{"bufferView":19,"componentType":5123,"count":768,"max":[387],"min":[0],"type":"SCALAR"}],"materials":[{"pbrMetallicRoughness":{"metallicFactor":0,"roughnessFactor":1},"doubleSided":true},{"pbrMetallicRoughness":{"baseColorFactor":[0.0392156862745098,0.0392156862745098,0.0392156862745098,1],"metallicFactor":0.2,"roughnessFactor":0.6},"doubleSided":true},{"pbrMetallicRoughness":{"baseColorFactor":[0.8941176470588236,0.3686274509803922,0.17254901960784313,1],"metallicFactor":0.2,"roughnessFactor":0.6},"doubleSided":true},{"pbrMetallicRoughness":{"baseColorFactor":[0.9372549019607843,0.1803921568627451,0.1803921568627451,1],"metallicFactor":0.2,"roughnessFactor":0.6},"doubleSided":true},{"pbrMetallicRoughness":{"baseColorFactor":[0.42745098039215684,0.2901960784313726,0.2901960784313726,1],"metallicFactor":0.2,"roughnessFactor":0.6},"doubleSided":true}],"meshes":[{"primitives":[{"mode":4,"attributes":{"POSITION":0,"NORMAL":1,"TEXCOORD_0":2},"extras":{"mergedUserData":[{},{}]},"indices":3,"material":0}]},{"primitives":[{"mode":4,"attributes":{"POSITION":4,"NORMAL":5,"TEXCOORD_0":6},"extras":{"mergedUserData":[{},{}]},"indices":7,"material":1}]},{"primitives":[{"mode":4,"attributes":{"POSITION":8,"NORMAL":9,"TEXCOORD_0":10},"indices":11,"material":2}]},{"primitives":[{"mode":4,"attributes":{"POSITION":12,"NORMAL":13,"TEXCOORD_0":14},"indices":15,"material":3}]},{"primitives":[{"mode":4,"attributes":{"POSITION":16,"NORMAL":17,"TEXCOORD_0":18},"indices":19,"material":4}]}],"extensionsUsed":["KHR_lights_punctual"]}